<svg xmlns="http://www.w3.org/2000/svg" xmlns:xlink="http://www.w3.org/1999/xlink" width="1300" zoomAndPan="magnify" viewBox="0 0 974.88 157.5" height="210" preserveAspectRatio="xMidYMid meet" version="1.0"><defs><g/></defs><g fill="#232b38" fill-opacity="1"><g transform="translate(41.61042, 106.536789)"><g><path d="M 13.546875 -22.1875 L 13.546875 0 L 7.34375 0 L 7.34375 -53.359375 L 21.96875 -53.359375 C 28.519531 -53.359375 33.359375 -52.101562 36.484375 -49.59375 C 39.609375 -47.09375 41.171875 -43.320312 41.171875 -38.28125 C 41.171875 -31.226562 37.59375 -26.460938 30.4375 -23.984375 L 44.9375 0 L 37.59375 0 L 24.671875 -22.1875 Z M 13.546875 -27.515625 L 22.046875 -27.515625 C 26.421875 -27.515625 29.628906 -28.382812 31.671875 -30.125 C 33.722656 -31.863281 34.75 -34.472656 34.75 -37.953125 C 34.75 -41.484375 33.707031 -44.023438 31.625 -45.578125 C 29.539062 -47.140625 26.203125 -47.921875 21.609375 -47.921875 L 13.546875 -47.921875 Z M 13.546875 -27.515625 "/></g></g></g><g fill="#232b38" fill-opacity="1"><g transform="translate(116.452656, 106.536789)"><g><path d="M 37.078125 0 L 7.34375 0 L 7.34375 -53.359375 L 37.078125 -53.359375 L 37.078125 -47.84375 L 13.546875 -47.84375 L 13.546875 -30.65625 L 35.65625 -30.65625 L 35.65625 -25.1875 L 13.546875 -25.1875 L 13.546875 -5.546875 L 37.078125 -5.546875 Z M 37.078125 0 "/></g></g></g><g fill="#232b38" fill-opacity="1"><g transform="translate(186.659462, 106.536789)"><g><path d="M 40.875 0 L 34.234375 -16.96875 L 12.84375 -16.96875 L 6.28125 0 L 0 0 L 21.09375 -53.578125 L 26.3125 -53.578125 L 47.296875 0 Z M 32.296875 -22.5625 L 26.09375 -39.09375 C 25.289062 -41.1875 24.460938 -43.753906 23.609375 -46.796875 C 23.078125 -44.453125 22.3125 -41.882812 21.3125 -39.09375 L 15.03125 -22.5625 Z M 32.296875 -22.5625 "/></g></g></g><g fill="#232b38" fill-opacity="1"><g transform="translate(262.596672, 106.536789)"><g><path d="M 30.1875 -48.578125 C 24.320312 -48.578125 19.691406 -46.625 16.296875 -42.71875 C 12.898438 -38.8125 11.203125 -33.46875 11.203125 -26.6875 C 11.203125 -19.695312 12.835938 -14.296875 16.109375 -10.484375 C 19.390625 -6.679688 24.054688 -4.78125 30.109375 -4.78125 C 33.835938 -4.78125 38.082031 -5.445312 42.84375 -6.78125 L 42.84375 -1.34375 C 39.144531 0.0390625 34.582031 0.734375 29.15625 0.734375 C 21.300781 0.734375 15.238281 -1.648438 10.96875 -6.421875 C 6.695312 -11.191406 4.5625 -17.96875 4.5625 -26.75 C 4.5625 -32.25 5.585938 -37.066406 7.640625 -41.203125 C 9.703125 -45.335938 12.671875 -48.523438 16.546875 -50.765625 C 20.429688 -53.003906 25 -54.125 30.25 -54.125 C 35.851562 -54.125 40.75 -53.101562 44.9375 -51.0625 L 42.296875 -45.734375 C 38.265625 -47.628906 34.226562 -48.578125 30.1875 -48.578125 Z M 30.1875 -48.578125 "/></g></g></g><g fill="#232b38" fill-opacity="1"><g transform="translate(338.387906, 106.536789)"><g><path d="M 23.765625 0 L 17.5625 0 L 17.5625 -47.84375 L 0.65625 -47.84375 L 0.65625 -53.359375 L 40.65625 -53.359375 L 40.65625 -47.84375 L 23.765625 -47.84375 Z M 23.765625 0 "/></g></g></g><g fill="#232b38" fill-opacity="1"><g transform="translate(408.375726, 106.536789)"><g/></g></g><g fill="#232b38" fill-opacity="1"><g transform="translate(456.427342, 106.536789)"><g><path d="M 37.453125 -14.203125 C 37.453125 -9.503906 35.75 -5.835938 32.34375 -3.203125 C 28.9375 -0.578125 24.3125 0.734375 18.46875 0.734375 C 12.144531 0.734375 7.28125 -0.0820312 3.875 -1.71875 L 3.875 -7.703125 C 6.0625 -6.773438 8.441406 -6.039062 11.015625 -5.5 C 13.597656 -4.96875 16.15625 -4.703125 18.6875 -4.703125 C 22.820312 -4.703125 25.9375 -5.488281 28.03125 -7.0625 C 30.125 -8.632812 31.171875 -10.816406 31.171875 -13.609375 C 31.171875 -15.460938 30.796875 -16.976562 30.046875 -18.15625 C 29.304688 -19.332031 28.066406 -20.421875 26.328125 -21.421875 C 24.585938 -22.421875 21.941406 -23.550781 18.390625 -24.8125 C 13.429688 -26.59375 9.882812 -28.695312 7.75 -31.125 C 5.625 -33.5625 4.5625 -36.738281 4.5625 -40.65625 C 4.5625 -44.769531 6.101562 -48.039062 9.1875 -50.46875 C 12.28125 -52.90625 16.375 -54.125 21.46875 -54.125 C 26.769531 -54.125 31.644531 -53.148438 36.09375 -51.203125 L 34.15625 -45.8125 C 29.757812 -47.65625 25.476562 -48.578125 21.3125 -48.578125 C 18.03125 -48.578125 15.460938 -47.867188 13.609375 -46.453125 C 11.765625 -45.046875 10.84375 -43.09375 10.84375 -40.59375 C 10.84375 -38.738281 11.179688 -37.21875 11.859375 -36.03125 C 12.546875 -34.851562 13.695312 -33.769531 15.3125 -32.78125 C 16.925781 -31.800781 19.398438 -30.71875 22.734375 -29.53125 C 28.335938 -27.53125 32.191406 -25.382812 34.296875 -23.09375 C 36.398438 -20.8125 37.453125 -17.847656 37.453125 -14.203125 Z M 37.453125 -14.203125 "/></g></g></g><g fill="#232b38" fill-opacity="1"><g transform="translate(526.086661, 106.536789)"><g><path d="M 23.765625 0 L 17.5625 0 L 17.5625 -47.84375 L 0.65625 -47.84375 L 0.65625 -53.359375 L 40.65625 -53.359375 L 40.65625 -47.84375 L 23.765625 -47.84375 Z M 23.765625 0 "/></g></g></g><g fill="#232b38" fill-opacity="1"><g transform="translate(596.074481, 106.536789)"><g><path d="M 40.875 0 L 34.234375 -16.96875 L 12.84375 -16.96875 L 6.28125 0 L 0 0 L 21.09375 -53.578125 L 26.3125 -53.578125 L 47.296875 0 Z M 32.296875 -22.5625 L 26.09375 -39.09375 C 25.289062 -41.1875 24.460938 -43.753906 23.609375 -46.796875 C 23.078125 -44.453125 22.3125 -41.882812 21.3125 -39.09375 L 15.03125 -22.5625 Z M 32.296875 -22.5625 "/></g></g></g><g fill="#232b38" fill-opacity="1"><g transform="translate(672.011691, 106.536789)"><g><path d="M 13.546875 -22.1875 L 13.546875 0 L 7.34375 0 L 7.34375 -53.359375 L 21.96875 -53.359375 C 28.519531 -53.359375 33.359375 -52.101562 36.484375 -49.59375 C 39.609375 -47.09375 41.171875 -43.320312 41.171875 -38.28125 C 41.171875 -31.226562 37.59375 -26.460938 30.4375 -23.984375 L 44.9375 0 L 37.59375 0 L 24.671875 -22.1875 Z M 13.546875 -27.515625 L 22.046875 -27.515625 C 26.421875 -27.515625 29.628906 -28.382812 31.671875 -30.125 C 33.722656 -31.863281 34.75 -34.472656 34.75 -37.953125 C 34.75 -41.484375 33.707031 -44.023438 31.625 -45.578125 C 29.539062 -47.140625 26.203125 -47.921875 21.609375 -47.921875 L 13.546875 -47.921875 Z M 13.546875 -27.515625 "/></g></g></g><g fill="#232b38" fill-opacity="1"><g transform="translate(746.853927, 106.536789)"><g><path d="M 23.765625 0 L 17.5625 0 L 17.5625 -47.84375 L 0.65625 -47.84375 L 0.65625 -53.359375 L 40.65625 -53.359375 L 40.65625 -47.84375 L 23.765625 -47.84375 Z M 23.765625 0 "/></g></g></g><g fill="#232b38" fill-opacity="1"><g transform="translate(816.841747, 106.536789)"><g><path d="M 37.078125 0 L 7.34375 0 L 7.34375 -53.359375 L 37.078125 -53.359375 L 37.078125 -47.84375 L 13.546875 -47.84375 L 13.546875 -30.65625 L 35.65625 -30.65625 L 35.65625 -25.1875 L 13.546875 -25.1875 L 13.546875 -5.546875 L 37.078125 -5.546875 Z M 37.078125 0 "/></g></g></g><g fill="#232b38" fill-opacity="1"><g transform="translate(887.048553, 106.536789)"><g><path d="M 13.546875 -22.1875 L 13.546875 0 L 7.34375 0 L 7.34375 -53.359375 L 21.96875 -53.359375 C 28.519531 -53.359375 33.359375 -52.101562 36.484375 -49.59375 C 39.609375 -47.09375 41.171875 -43.320312 41.171875 -38.28125 C 41.171875 -31.226562 37.59375 -26.460938 30.4375 -23.984375 L 44.9375 0 L 37.59375 0 L 24.671875 -22.1875 Z M 13.546875 -27.515625 L 22.046875 -27.515625 C 26.421875 -27.515625 29.628906 -28.382812 31.671875 -30.125 C 33.722656 -31.863281 34.75 -34.472656 34.75 -37.953125 C 34.75 -41.484375 33.707031 -44.023438 31.625 -45.578125 C 29.539062 -47.140625 26.203125 -47.921875 21.609375 -47.921875 L 13.546875 -47.921875 Z M 13.546875 -27.515625 "/></g></g></g></svg>