<svg xmlns="http://www.w3.org/2000/svg" xmlns:xlink="http://www.w3.org/1999/xlink" width="1300" zoomAndPan="magnify" viewBox="0 0 974.88 157.5" height="210" preserveAspectRatio="xMidYMid meet" version="1.0"><defs><g/><clipPath id="ebc37dde4d"><path d="M 479 10 L 973.277344 10 L 973.277344 153 L 479 153 Z M 479 10 " clip-rule="nonzero"/></clipPath></defs><g clip-path="url(#ebc37dde4d)"><path stroke-linecap="butt" transform="matrix(0.747627, 0, 0, 0.747627, 480.245611, 23.967518)" fill="none" stroke-linejoin="miter" d="M 36.611295 135.999736 C 35.545422 135.999736 34.662419 135.66012 33.957062 134.986112 C 33.283054 134.285979 32.943438 133.45 32.943438 132.488625 L 32.943438 21.637826 C 32.943438 20.467456 33.309178 19.490406 34.035435 18.7119 C 34.793041 17.907271 35.754417 17.504956 36.924787 17.504956 L 84.533784 17.504956 C 101.143639 17.504956 113.725121 20.143514 122.27823 25.420631 C 130.852238 30.671623 135.141855 38.467126 135.141855 48.812365 C 135.141855 54.455222 133.595294 59.225526 130.502172 63.123278 C 127.435174 67.00013 122.016986 70.741135 114.242383 74.351519 C 114.033388 74.456016 113.934116 74.654561 113.934116 74.936704 C 113.934116 75.197948 114.033388 75.380818 114.242383 75.485315 C 122.873865 78.65681 128.99741 82.42394 132.607794 86.79193 C 136.223402 91.159919 138.025982 96.813226 138.025982 103.751851 C 138.025982 114.697949 133.840863 122.806944 125.470624 128.084061 C 117.12651 133.361178 104.341258 135.999736 87.104419 135.999736 Z M 87.104419 63.828635 C 90.824525 63.828635 93.797475 62.815011 96.033718 60.782537 C 98.269962 58.755288 99.388083 56.142854 99.388083 52.945235 C 99.388083 49.543846 98.102766 46.774666 95.526906 44.64292 C 92.982395 42.511174 89.795226 41.445301 85.975847 41.445301 L 72.871878 41.445301 C 71.497738 41.445301 70.536363 41.69087 69.987751 42.187232 C 69.470489 42.652245 69.209246 43.47255 69.209246 44.64292 L 69.209246 60.275725 C 69.209246 61.576717 69.418241 62.501519 69.831005 63.044905 C 70.275119 63.567392 70.964802 63.828635 71.900053 63.828635 Z M 86.284114 112.059391 C 90.652104 112.059391 94.084842 110.836772 96.582329 108.391534 C 99.100716 105.925396 100.359909 103.041269 100.359909 99.739152 C 100.359909 96.437036 99.12684 93.720105 96.660702 91.588358 C 94.215464 89.456612 91.028295 88.390739 87.104419 88.390739 L 72.871878 88.390739 C 71.497738 88.390739 70.536363 88.662432 69.987751 89.211044 C 69.470489 89.728305 69.209246 90.574734 69.209246 91.745105 L 69.209246 108.511706 C 69.209246 109.812698 69.418241 110.732275 69.831005 111.280886 C 70.275119 111.798148 70.964802 112.059391 71.900053 112.059391 Z M 205.123736 137.598546 C 193.508854 137.598546 183.356936 135.127183 174.673205 130.189683 C 165.989475 125.226058 159.312094 118.193386 154.630612 109.096891 C 149.954355 99.995171 147.613614 89.325991 147.613614 77.084125 C 147.613614 64.842259 149.98048 54.115606 154.708985 44.914613 C 159.46884 35.687496 166.172345 28.550327 174.829952 23.508329 C 183.513682 18.440207 193.608127 15.906146 205.123736 15.906146 C 216.513948 15.906146 226.503895 18.440207 235.109253 23.508329 C 243.740735 28.550327 250.423341 35.687496 255.151846 44.914613 C 259.911701 54.115606 262.289016 64.842259 262.289016 77.084125 C 262.289016 89.221493 259.932601 99.869774 255.230219 109.018518 C 250.548738 118.167262 243.897481 125.226058 235.265999 130.189683 C 226.660642 135.127183 216.61322 137.598546 205.123736 137.598546 Z M 205.123736 112.68115 C 209.805218 112.68115 213.520099 111.536904 216.278829 109.253637 C 219.058459 106.965145 221.085707 103.271163 222.360575 98.176917 C 223.635443 93.056546 224.272877 86.18062 224.272877 77.549138 C 224.272877 64.345897 222.778565 54.873211 219.784715 49.125857 C 216.822215 43.383727 211.936964 40.510049 205.123736 40.510049 C 198.185111 40.510049 193.195362 43.383727 190.154489 49.125857 C 187.13974 54.873211 185.629754 64.345897 185.629754 77.549138 C 185.629754 86.18062 186.267187 93.056546 187.542055 98.176917 C 188.816923 103.271163 190.854621 106.965145 193.660376 109.253637 C 196.497479 111.536904 200.316857 112.68115 205.123736 112.68115 Z M 274.091993 135.999736 C 273.235114 135.999736 272.529757 135.712368 271.986371 135.142858 C 271.469109 134.541998 271.207866 133.711244 271.207866 132.645371 C 271.207866 131.89299 271.375061 131.036111 271.714678 130.074736 L 310.352576 21.167588 C 310.875063 19.793448 311.460248 18.842522 312.108132 18.32526 C 312.76124 17.776649 313.774865 17.504956 315.149005 17.504956 L 346.618385 17.504956 C 347.888028 17.504956 349.032274 17.907271 350.045898 18.7119 C 351.059522 19.490406 351.827578 20.519705 352.350065 21.794572 L 390.679696 130.581548 C 390.883466 131.438426 390.987963 132.07586 390.987963 132.488625 C 390.987963 133.45 390.778968 134.285979 390.366204 134.986112 C 389.948214 135.66012 389.310781 135.999736 388.453902 135.999736 L 357.146493 135.999736 C 355.323015 135.999736 354.152644 135.090609 353.635382 133.272355 L 347.39689 114.906944 C 347.083398 114.175463 346.78558 113.684325 346.498213 113.423082 C 346.242194 113.135714 345.745832 112.994642 345.019575 112.994642 L 311.136306 112.994642 C 309.861439 112.994642 309.067259 113.579828 308.753767 114.750198 L 302.207007 133.622421 C 301.553899 135.205556 300.279031 135.999736 298.382404 135.999736 Z M 337.025527 85.856678 C 338.195897 85.856678 338.781083 85.323742 338.781083 84.257869 C 338.781083 84.048874 338.676585 83.515938 338.467591 82.659059 L 328.874733 55.364349 C 328.665738 54.820963 328.341797 54.544045 327.902908 54.544045 C 327.484918 54.544045 327.171426 54.820963 326.962431 55.364349 L 317.218053 82.502313 C 317.009058 82.920303 316.904561 83.453239 316.904561 84.101123 C 316.904561 85.271493 317.541994 85.856678 318.816862 85.856678 Z M 506.776262 130.889815 C 506.985256 131.307805 507.089754 131.89299 507.089754 132.645371 C 507.089754 133.606746 506.791936 134.416601 506.191076 135.064485 C 505.621566 135.686244 504.869185 135.999736 503.928709 135.999736 L 472.934792 135.999736 C 470.698548 135.999736 469.256485 134.881614 468.603376 132.645371 L 453.592331 91.431612 C 453.278839 90.574734 452.745902 89.9373 451.993521 89.519311 C 451.267265 89.106546 450.149143 88.897551 448.639156 88.897551 L 441.308666 88.897551 C 440.660783 88.897551 440.180095 89.106546 439.866603 89.519311 C 439.553111 89.9373 439.40159 90.313491 439.40159 90.653107 L 439.40159 131.360053 C 439.40159 133.07381 438.97315 134.285979 438.111047 134.986112 C 437.254169 135.66012 435.927052 135.999736 434.134923 135.999736 L 407.268652 135.999736 C 405.685517 135.999736 404.593519 135.686244 403.992659 135.064485 C 403.423149 134.416601 403.135781 133.402977 403.135781 132.023611 L 403.135781 21.167588 C 403.135781 18.727575 404.149406 17.504956 406.176654 17.504956 L 459.517331 17.504956 C 474.962041 17.504956 486.932213 20.457006 495.433073 26.355882 C 503.954833 32.254758 508.218325 40.588422 508.218325 51.346426 C 508.218325 58.70304 506.269449 65.255024 502.371698 71.002379 C 498.500071 76.744509 493.478973 80.788556 487.318853 83.129297 C 486.67097 83.463689 486.347028 83.996625 486.347028 84.728107 C 486.347028 85.036374 486.451525 85.517062 486.655295 86.17017 Z M 458.075268 65.072154 C 462.129765 65.072154 465.249011 64.04808 467.433006 61.994706 C 469.617001 59.915209 470.708998 57.10423 470.708998 53.572219 C 470.708998 49.648343 469.397556 46.591796 466.769448 44.407801 C 464.172688 42.223806 460.948945 41.131809 457.103442 41.131809 L 443.064222 41.131809 C 441.684857 41.131809 440.723481 41.382602 440.180095 41.87374 C 439.657608 42.343978 439.40159 43.159058 439.40159 44.329428 L 439.40159 61.723013 C 439.40159 62.888159 439.579235 63.750262 439.944976 64.293648 C 440.310717 64.816135 441.026523 65.072154 442.092397 65.072154 Z M 544.316938 17.504956 C 556.976793 17.504956 564.855894 17.557205 567.949016 17.661702 C 588.717866 18.414083 604.418594 24.030816 615.0512 34.506676 C 625.709931 44.982536 631.034071 58.953833 631.034071 76.420567 C 631.034071 88.145171 628.630632 98.474734 623.823753 107.419708 C 619.037774 116.359457 611.90583 123.366005 602.417469 128.434127 C 592.955233 133.476125 581.4135 135.999736 567.792269 135.999736 L 525.800006 135.999736 C 524.185522 135.999736 523.004701 135.633995 522.247096 134.907739 C 521.520839 134.155358 521.160323 132.917064 521.160323 131.203307 L 521.160323 21.48108 C 521.160323 19.997218 521.46859 18.973144 522.095574 18.403633 C 522.743458 17.802773 523.87203 17.504956 525.486514 17.504956 Z M 559.019716 42.573872 C 558.471105 42.573872 558.06879 42.730618 557.812772 43.04411 C 557.551528 43.357602 557.420907 43.942788 557.420907 44.799666 L 557.420907 108.511706 C 557.420907 109.473081 557.577653 110.120965 557.88592 110.460581 C 558.199412 110.774074 558.784597 110.93082 559.641475 110.93082 L 560.775272 110.93082 C 571.303381 110.93082 579.307878 108.187764 584.79399 102.701653 C 590.274876 97.215541 593.017932 88.301917 593.017932 75.950329 C 593.017932 65.296823 590.938434 57.365473 586.77944 52.16673 C 582.646569 46.941862 576.590947 43.953237 568.612574 43.200856 Z M 559.019716 42.573872 " stroke="#244655" stroke-width="5.989162" stroke-opacity="1" stroke-miterlimit="4"/></g><g fill="#244655" fill-opacity="1"><g transform="translate(15.665076, 120.675882)"><g><path d="M 121.625 -85.78125 C 122.78125 -85.78125 123.6875 -85.488281 124.34375 -84.90625 C 125 -84.332031 125.328125 -83.546875 125.328125 -82.546875 C 125.328125 -82.234375 125.25 -81.769531 125.09375 -81.15625 L 101.625 -2.890625 C 101.238281 -1.890625 100.734375 -1.15625 100.109375 -0.6875 C 99.492188 -0.226562 98.609375 0 97.453125 0 L 81.5 0 C 79.269531 0 77.882812 -0.960938 77.34375 -2.890625 L 65.3125 -43.578125 C 65.082031 -44.585938 64.816406 -45.09375 64.515625 -45.09375 C 64.273438 -45.09375 63.925781 -44.515625 63.46875 -43.359375 L 51.5625 -2.890625 C 51.25 -1.890625 50.765625 -1.15625 50.109375 -0.6875 C 49.460938 -0.226562 48.5625 0 47.40625 0 L 30.875 0 C 29.71875 0 28.828125 -0.226562 28.203125 -0.6875 C 27.585938 -1.15625 27.085938 -1.890625 26.703125 -2.890625 L 3.125 -81.15625 C 2.96875 -81.769531 2.890625 -82.234375 2.890625 -82.546875 C 2.890625 -83.546875 3.21875 -84.332031 3.875 -84.90625 C 4.53125 -85.488281 5.4375 -85.78125 6.59375 -85.78125 L 25.671875 -85.78125 C 26.828125 -85.78125 27.671875 -85.585938 28.203125 -85.203125 C 28.742188 -84.816406 29.128906 -84.203125 29.359375 -83.359375 L 41.625 -40.46875 C 41.851562 -39.539062 42.117188 -39.078125 42.421875 -39.078125 C 42.660156 -39.078125 42.851562 -39.382812 43 -40 L 55.140625 -83.359375 C 55.523438 -84.972656 56.757812 -85.78125 58.84375 -85.78125 L 75.03125 -85.78125 C 76.1875 -85.78125 77.035156 -85.585938 77.578125 -85.203125 C 78.117188 -84.816406 78.503906 -84.203125 78.734375 -83.359375 L 91.453125 -39.421875 C 91.597656 -38.960938 91.828125 -38.691406 92.140625 -38.609375 C 92.453125 -38.535156 92.644531 -38.726562 92.71875 -39.1875 L 104.515625 -83.359375 C 104.898438 -84.972656 106.128906 -85.78125 108.203125 -85.78125 Z M 121.625 -85.78125 "/></g></g></g><g fill="#244655" fill-opacity="1"><g transform="translate(143.867374, 120.675882)"><g><path d="M 4.96875 0 C 4.351562 0 3.851562 -0.207031 3.46875 -0.625 C 3.082031 -1.050781 2.890625 -1.648438 2.890625 -2.421875 C 2.890625 -2.960938 3.003906 -3.582031 3.234375 -4.28125 L 31.21875 -83.125 C 31.601562 -84.125 32.023438 -84.816406 32.484375 -85.203125 C 32.953125 -85.585938 33.6875 -85.78125 34.6875 -85.78125 L 57.453125 -85.78125 C 58.378906 -85.78125 59.207031 -85.488281 59.9375 -84.90625 C 60.675781 -84.332031 61.238281 -83.582031 61.625 -82.65625 L 89.359375 -3.9375 C 89.515625 -3.3125 89.59375 -2.847656 89.59375 -2.546875 C 89.59375 -1.847656 89.4375 -1.25 89.125 -0.75 C 88.820312 -0.25 88.363281 0 87.75 0 L 65.09375 0 C 63.78125 0 62.929688 -0.65625 62.546875 -1.96875 L 58.03125 -15.265625 C 57.800781 -15.796875 57.585938 -16.15625 57.390625 -16.34375 C 57.203125 -16.539062 56.835938 -16.640625 56.296875 -16.640625 L 31.796875 -16.640625 C 30.867188 -16.640625 30.289062 -16.21875 30.0625 -15.375 L 25.3125 -1.734375 C 24.851562 -0.578125 23.929688 0 22.546875 0 Z M 50.515625 -36.296875 C 51.367188 -36.296875 51.796875 -36.679688 51.796875 -37.453125 C 51.796875 -37.609375 51.71875 -37.992188 51.5625 -38.609375 L 44.625 -58.375 C 44.46875 -58.757812 44.234375 -58.953125 43.921875 -58.953125 C 43.617188 -58.953125 43.390625 -58.757812 43.234375 -58.375 L 36.1875 -38.734375 C 36.03125 -38.421875 35.953125 -38.035156 35.953125 -37.578125 C 35.953125 -36.722656 36.414062 -36.296875 37.34375 -36.296875 Z M 50.515625 -36.296875 "/></g></g></g><g fill="#244655" fill-opacity="1"><g transform="translate(236.233157, 120.675882)"><g><path d="M 3.234375 -83.125 C 3.234375 -83.894531 3.484375 -84.53125 3.984375 -85.03125 C 4.484375 -85.53125 5.195312 -85.78125 6.125 -85.78125 L 75.265625 -85.78125 C 76.191406 -85.78125 76.90625 -85.53125 77.40625 -85.03125 C 77.90625 -84.53125 78.15625 -83.894531 78.15625 -83.125 L 78.15625 -69.359375 C 78.15625 -67.898438 77.304688 -67.171875 75.609375 -67.171875 L 55.140625 -67.171875 C 54.222656 -67.171875 53.765625 -66.785156 53.765625 -66.015625 L 53.765625 -2.546875 C 53.765625 -1.691406 53.570312 -1.050781 53.1875 -0.625 C 52.800781 -0.207031 52.257812 0 51.5625 0 L 29.59375 0 C 28.207031 0 27.515625 -0.769531 27.515625 -2.3125 L 27.515625 -65.546875 C 27.515625 -66.628906 27.09375 -67.171875 26.25 -67.171875 L 5.890625 -67.171875 C 4.117188 -67.171875 3.234375 -67.898438 3.234375 -69.359375 Z M 3.234375 -83.125 "/></g></g></g><g fill="#244655" fill-opacity="1"><g transform="translate(317.616761, 120.675882)"><g><path d="M 44.515625 -86.9375 C 50.910156 -86.9375 56.6875 -85.800781 61.84375 -83.53125 C 67.007812 -81.257812 71.25 -78.117188 74.5625 -74.109375 C 77.882812 -70.097656 80.046875 -65.507812 81.046875 -60.34375 C 81.273438 -59.414062 81.390625 -58.6875 81.390625 -58.15625 C 81.390625 -57.457031 81.253906 -56.992188 80.984375 -56.765625 C 80.710938 -56.535156 80.234375 -56.378906 79.546875 -56.296875 L 59.3125 -55.03125 C 58.539062 -55.03125 58.035156 -55.164062 57.796875 -55.4375 C 57.566406 -55.707031 57.335938 -56.304688 57.109375 -57.234375 C 56.421875 -60.929688 55.148438 -63.835938 53.296875 -65.953125 C 51.441406 -68.078125 48.742188 -69.140625 45.203125 -69.140625 C 40.648438 -69.140625 37.140625 -67.132812 34.671875 -63.125 C 32.210938 -59.113281 30.984375 -52.597656 30.984375 -43.578125 C 30.984375 -34.253906 32.117188 -27.625 34.390625 -23.6875 C 36.660156 -19.757812 40.226562 -17.796875 45.09375 -17.796875 C 49.175781 -17.796875 52.660156 -18.835938 55.546875 -20.921875 C 58.441406 -23.003906 60.851562 -26.472656 62.78125 -31.328125 C 63.007812 -32.023438 63.660156 -32.375 64.734375 -32.375 C 65.273438 -32.375 65.703125 -32.332031 66.015625 -32.25 L 80.46875 -29.359375 C 81.625 -28.972656 82.203125 -28.085938 82.203125 -26.703125 C 82.203125 -24.546875 80.867188 -21.210938 78.203125 -16.703125 C 75.546875 -12.191406 71.382812 -8.085938 65.71875 -4.390625 C 60.0625 -0.691406 52.914062 1.15625 44.28125 1.15625 C 36.113281 1.15625 28.945312 -0.785156 22.78125 -4.671875 C 16.613281 -8.566406 11.851562 -13.925781 8.5 -20.75 C 5.144531 -27.570312 3.46875 -35.335938 3.46875 -44.046875 C 3.46875 -52.679688 5.144531 -60.234375 8.5 -66.703125 C 11.851562 -73.179688 16.628906 -78.171875 22.828125 -81.671875 C 29.035156 -85.179688 36.265625 -86.9375 44.515625 -86.9375 Z M 44.515625 -86.9375 "/></g></g></g><g fill="#244655" fill-opacity="1"><g transform="translate(402.815249, 120.675882)"><g><path d="M 34.109375 -34.34375 C 33.566406 -34.34375 33.117188 -34.164062 32.765625 -33.8125 C 32.421875 -33.46875 32.25 -33.066406 32.25 -32.609375 L 32.25 -3.359375 C 32.25 -2.117188 31.941406 -1.25 31.328125 -0.75 C 30.710938 -0.25 29.75 0 28.4375 0 L 9.140625 0 C 7.984375 0 7.171875 -0.226562 6.703125 -0.6875 C 6.242188 -1.15625 6.015625 -1.890625 6.015625 -2.890625 L 6.015625 -83.125 C 6.015625 -83.96875 6.207031 -84.617188 6.59375 -85.078125 C 6.976562 -85.546875 7.515625 -85.78125 8.203125 -85.78125 L 30.171875 -85.78125 C 30.785156 -85.78125 31.285156 -85.566406 31.671875 -85.140625 C 32.054688 -84.722656 32.25 -84.128906 32.25 -83.359375 L 32.25 -56.53125 C 32.25 -54.988281 32.945312 -54.21875 34.34375 -54.21875 L 53.765625 -54.21875 C 55.148438 -54.21875 55.84375 -54.988281 55.84375 -56.53125 L 55.84375 -83.359375 C 55.84375 -84.128906 56.035156 -84.722656 56.421875 -85.140625 C 56.804688 -85.566406 57.304688 -85.78125 57.921875 -85.78125 L 79.890625 -85.78125 C 80.578125 -85.78125 81.113281 -85.546875 81.5 -85.078125 C 81.882812 -84.617188 82.078125 -83.96875 82.078125 -83.125 L 82.078125 -2.890625 C 82.078125 -1.890625 81.847656 -1.15625 81.390625 -0.6875 C 80.929688 -0.226562 80.125 0 78.96875 0 L 59.65625 0 C 58.34375 0 57.378906 -0.25 56.765625 -0.75 C 56.148438 -1.25 55.84375 -2.117188 55.84375 -3.359375 L 55.84375 -32.609375 C 55.84375 -33.066406 55.664062 -33.46875 55.3125 -33.8125 C 54.96875 -34.164062 54.523438 -34.34375 53.984375 -34.34375 Z M 34.109375 -34.34375 "/></g></g></g></svg>