<svg xmlns="http://www.w3.org/2000/svg" xmlns:xlink="http://www.w3.org/1999/xlink" width="1300" zoomAndPan="magnify" viewBox="0 0 974.88 157.5" height="210" preserveAspectRatio="xMidYMid meet" version="1.0"><defs><g/><clipPath id="0fb3b9140e"><path d="M 479 10 L 973.277344 10 L 973.277344 153 L 479 153 Z M 479 10 " clip-rule="nonzero"/></clipPath></defs><g clip-path="url(#0fb3b9140e)"><path stroke-linecap="butt" transform="matrix(0.904414, 0, 0, 0.904414, 480.245611, 23.81697)" fill="none" stroke-linejoin="miter" d="M 30.268755 112.999873 C 29.38766 112.999873 28.657732 112.719132 28.078974 112.161969 C 27.517491 111.58321 27.241069 110.892155 27.241069 110.097441 L 27.241069 18.46351 C 27.241069 17.500351 27.539087 16.692681 28.14376 16.049135 C 28.76571 15.379676 29.560423 15.047105 30.527901 15.047105 L 69.8835 15.047105 C 83.613904 15.047105 94.014286 17.228248 101.084646 21.590535 C 108.172282 25.931226 111.718259 32.379636 111.718259 40.931445 C 111.718259 45.591749 110.439807 49.535083 107.882902 52.761448 C 105.347593 55.961897 100.868691 59.05437 94.441877 62.043184 C 94.269113 62.129566 94.18705 62.289372 94.18705 62.526923 C 94.18705 62.738558 94.269113 62.889727 94.441877 62.976109 C 101.577023 65.5978 106.639003 68.711867 109.623498 72.322631 C 112.612312 75.933395 114.1024 80.606657 114.1024 86.346735 C 114.1024 95.390921 110.642804 102.094157 103.723613 106.456444 C 96.826018 110.81873 86.257191 112.999873 72.008495 112.999873 Z M 72.008495 53.340206 C 75.083691 53.340206 77.541256 52.502302 79.389829 50.826493 C 81.238402 49.150684 82.162688 46.991136 82.162688 44.347849 C 82.162688 41.531799 81.100191 39.242679 78.970877 37.480488 C 76.867477 35.718297 74.232829 34.837201 71.07557 34.837201 L 60.243278 34.837201 C 59.107356 34.837201 58.312643 35.044518 57.859137 35.450513 C 57.431547 35.839231 57.215592 36.51301 57.215592 37.480488 L 57.215592 50.407541 C 57.215592 51.482995 57.388356 52.243156 57.729565 52.696661 C 58.096688 53.124252 58.666808 53.340206 59.439926 53.340206 Z M 71.334716 93.209777 C 74.94116 93.209777 77.778806 92.199109 79.843334 90.182092 C 81.925138 88.139159 82.970359 85.755019 82.970359 83.02535 C 82.970359 80.295682 81.946733 78.049752 79.90812 76.287561 C 77.886784 74.52537 75.256454 73.644275 72.008495 73.644275 L 60.243278 73.644275 C 59.107356 73.644275 58.312643 73.868868 57.859137 74.322373 C 57.431547 74.749963 57.215592 75.449657 57.215592 76.417134 L 57.215592 90.277112 C 57.215592 91.352566 57.388356 92.112727 57.729565 92.566232 C 58.096688 92.993823 58.666808 93.209777 59.439926 93.209777 Z M 169.568225 114.321517 C 159.962556 114.321517 151.574873 112.278584 144.396536 108.197039 C 137.218199 104.093898 131.698395 98.280396 127.828485 90.76085 C 123.962895 83.241305 122.02794 74.417393 122.02794 64.297752 C 122.02794 54.178111 123.98449 45.315327 127.893272 37.7094 C 131.827968 30.077558 137.369368 24.181992 144.526109 20.014065 C 151.704446 15.820223 160.048938 13.725462 169.568225 13.725462 C 178.979534 13.725462 187.241964 15.820223 194.355514 20.014065 C 201.49066 24.181992 207.010464 30.077558 210.923565 37.7094 C 214.853942 45.315327 216.81913 54.178111 216.81913 64.297752 C 216.81913 74.331011 214.875537 83.133328 210.988351 90.696064 C 207.118442 98.2588 201.620233 104.093898 194.485087 108.197039 C 187.371537 112.278584 179.065916 114.321517 169.568225 114.321517 Z M 169.568225 93.72375 C 173.438135 93.72375 176.509012 92.782187 178.789494 90.890423 C 181.087253 88.998659 182.763062 85.945059 183.816921 81.733941 C 184.866461 77.501227 185.393391 71.817297 185.393391 64.68647 C 185.393391 53.767797 184.15813 45.937277 181.687607 41.186272 C 179.23868 36.439586 175.200326 34.064083 169.568225 34.064083 C 163.832466 34.064083 159.70773 36.439586 157.194016 41.186272 C 154.701898 45.937277 153.453679 53.767797 153.453679 64.68647 C 153.453679 71.817297 153.980609 77.501227 155.034468 81.733941 C 156.084009 85.945059 157.772775 88.998659 160.092129 90.890423 C 162.437398 92.782187 165.594657 93.72375 169.568225 93.72375 Z M 226.580286 112.999873 C 225.871955 112.999873 225.288877 112.762323 224.839691 112.291542 C 224.407781 111.794846 224.196146 111.108109 224.196146 110.227014 C 224.196146 109.605064 224.334357 108.896733 224.615098 108.102019 L 256.554809 18.07911 C 256.986719 16.938869 257.466139 16.157113 258.006026 15.725203 C 258.541593 15.276017 259.379498 15.047105 260.519739 15.047105 L 286.529333 15.047105 C 287.583192 15.047105 288.529074 15.379676 289.366978 16.049135 C 290.204883 16.692681 290.83979 17.539223 291.26738 18.593083 L 322.952265 108.520971 C 323.125029 109.229303 323.211411 109.756233 323.211411 110.097441 C 323.211411 110.892155 323.038647 111.58321 322.69312 112.161969 C 322.351911 112.719132 321.824981 112.999873 321.112331 112.999873 L 295.23231 112.999873 C 293.729265 112.999873 292.761787 112.248351 292.329878 110.745305 L 287.172878 95.563685 C 286.918051 94.959011 286.671863 94.553016 286.434312 94.337061 C 286.218358 94.099511 285.812363 93.982896 285.207689 93.982896 L 257.198355 93.982896 C 256.144495 93.982896 255.492312 94.466634 255.233166 95.434112 L 249.81702 111.034685 C 249.281453 112.343371 248.227593 112.999873 246.659762 112.999873 Z M 278.599473 71.549513 C 279.566951 71.549513 280.050689 71.108966 280.050689 70.22787 C 280.050689 70.055106 279.964307 69.614558 279.791544 68.906227 L 271.866003 46.343272 C 271.693239 45.894086 271.425455 45.669493 271.058332 45.669493 C 270.717124 45.669493 270.457978 45.894086 270.285214 46.343272 L 262.225782 68.776654 C 262.057337 69.122182 261.970955 69.562729 261.970955 70.098297 C 261.970955 71.065775 262.497885 71.549513 263.547425 71.549513 Z M 418.922569 108.775798 C 419.095332 109.121326 419.181714 109.605064 419.181714 110.227014 C 419.181714 111.021728 418.935526 111.691187 418.43883 112.226755 C 417.968049 112.740728 417.346099 112.999873 416.572981 112.999873 L 390.947787 112.999873 C 389.099214 112.999873 387.907143 112.075587 387.367257 110.227014 L 374.958495 76.157988 C 374.703668 75.449657 374.263121 74.922727 373.636852 74.581518 C 373.036497 74.235991 372.112211 74.063227 370.868312 74.063227 L 364.80862 74.063227 C 364.268734 74.063227 363.871377 74.235991 363.61655 74.581518 C 363.357404 74.922727 363.227831 75.233702 363.227831 75.514443 L 363.227831 109.164516 C 363.227831 110.58118 362.873666 111.58321 362.165334 112.161969 C 361.457002 112.719132 360.359952 112.999873 358.878502 112.999873 L 336.669713 112.999873 C 335.356708 112.999873 334.454017 112.740728 333.96164 112.226755 C 333.490859 111.691187 333.253308 110.853283 333.253308 109.713042 L 333.253308 18.07911 C 333.253308 16.057774 334.091213 15.047105 335.767022 15.047105 L 379.860668 15.047105 C 392.623596 15.047105 402.518644 17.487394 409.545812 22.363653 C 416.594576 27.244231 420.114639 34.128869 420.114639 43.026206 C 420.114639 49.107493 418.503616 54.519319 415.281571 59.270325 C 412.081121 64.017011 407.93479 67.359991 402.838257 69.294945 C 402.302689 69.571368 402.034905 70.011915 402.034905 70.616589 C 402.034905 70.871415 402.121287 71.273091 402.294051 71.808659 Z M 378.668598 54.37247 C 382.020216 54.37247 384.598716 53.521608 386.404098 51.824204 C 388.205161 50.105204 389.107852 47.78585 389.107852 44.861822 C 389.107852 41.618181 388.023759 39.09151 385.855573 37.290447 C 383.704664 35.485065 381.039782 34.582374 377.860927 34.582374 L 366.259837 34.582374 C 365.119595 34.582374 364.324882 34.785372 363.871377 35.191367 C 363.443786 35.580085 363.227831 36.258183 363.227831 37.225661 L 363.227831 51.599611 C 363.227831 52.567088 363.379 53.27542 363.677017 53.724606 C 363.979354 54.156515 364.57107 54.37247 365.452166 54.37247 Z M 449.959589 15.047105 C 460.420439 15.047105 466.933635 15.090296 469.490539 15.176678 C 486.658944 15.798628 499.637826 20.441656 508.427186 29.101442 C 517.233822 37.761229 521.639299 49.31049 521.639299 63.749227 C 521.639299 73.441277 519.652515 81.984448 515.678947 89.374421 C 511.722656 96.764393 505.82709 102.5563 497.983613 106.745823 C 490.161731 110.91375 480.620849 112.999873 469.360967 112.999873 L 434.648396 112.999873 C 433.313795 112.999873 432.337679 112.697537 431.71573 112.097182 C 431.111056 111.475233 430.813039 110.451607 430.813039 109.034944 L 430.813039 18.338256 C 430.813039 17.111633 431.072184 16.260771 431.586157 15.78999 C 432.121725 15.297613 433.058968 15.047105 434.38925 15.047105 Z M 462.109205 35.774445 C 461.6557 35.774445 461.32313 35.904018 461.111494 36.158844 C 460.895539 36.41799 460.787562 36.901729 460.787562 37.61006 L 460.787562 90.277112 C 460.787562 91.071825 460.917135 91.607393 461.17628 91.888134 C 461.431107 92.14728 461.914846 92.276853 462.623178 92.276853 L 463.560421 92.276853 C 472.263399 92.276853 478.880253 90.009328 483.415304 85.474277 C 487.946035 80.939227 490.21356 73.57085 490.21356 63.364827 C 490.21356 54.553872 488.49456 48.001804 485.05656 43.704304 C 481.640155 39.385209 476.634323 36.910367 470.039065 36.288417 Z M 462.109205 35.774445 " stroke="#ffdf2b" stroke-width="4.9509" stroke-opacity="1" stroke-miterlimit="4"/></g><g fill="#ffdf2b" fill-opacity="1"><g transform="translate(15.670852, 121.535127)"><g><path d="M 121.625 -85.78125 C 122.78125 -85.78125 123.6875 -85.488281 124.34375 -84.90625 C 125 -84.332031 125.328125 -83.546875 125.328125 -82.546875 C 125.328125 -82.234375 125.25 -81.769531 125.09375 -81.15625 L 101.625 -2.890625 C 101.238281 -1.890625 100.734375 -1.15625 100.109375 -0.6875 C 99.492188 -0.226562 98.609375 0 97.453125 0 L 81.5 0 C 79.269531 0 77.882812 -0.960938 77.34375 -2.890625 L 65.3125 -43.578125 C 65.082031 -44.585938 64.816406 -45.09375 64.515625 -45.09375 C 64.273438 -45.09375 63.925781 -44.515625 63.46875 -43.359375 L 51.5625 -2.890625 C 51.25 -1.890625 50.765625 -1.15625 50.109375 -0.6875 C 49.460938 -0.226562 48.5625 0 47.40625 0 L 30.875 0 C 29.71875 0 28.828125 -0.226562 28.203125 -0.6875 C 27.585938 -1.15625 27.085938 -1.890625 26.703125 -2.890625 L 3.125 -81.15625 C 2.96875 -81.769531 2.890625 -82.234375 2.890625 -82.546875 C 2.890625 -83.546875 3.21875 -84.332031 3.875 -84.90625 C 4.53125 -85.488281 5.4375 -85.78125 6.59375 -85.78125 L 25.671875 -85.78125 C 26.828125 -85.78125 27.671875 -85.585938 28.203125 -85.203125 C 28.742188 -84.816406 29.128906 -84.203125 29.359375 -83.359375 L 41.625 -40.46875 C 41.851562 -39.539062 42.117188 -39.078125 42.421875 -39.078125 C 42.660156 -39.078125 42.851562 -39.382812 43 -40 L 55.140625 -83.359375 C 55.523438 -84.972656 56.757812 -85.78125 58.84375 -85.78125 L 75.03125 -85.78125 C 76.1875 -85.78125 77.035156 -85.585938 77.578125 -85.203125 C 78.117188 -84.816406 78.503906 -84.203125 78.734375 -83.359375 L 91.453125 -39.421875 C 91.597656 -38.960938 91.828125 -38.691406 92.140625 -38.609375 C 92.453125 -38.535156 92.644531 -38.726562 92.71875 -39.1875 L 104.515625 -83.359375 C 104.898438 -84.972656 106.128906 -85.78125 108.203125 -85.78125 Z M 121.625 -85.78125 "/></g></g></g><g fill="#ffdf2b" fill-opacity="1"><g transform="translate(143.871279, 121.535127)"><g><path d="M 4.96875 0 C 4.351562 0 3.851562 -0.207031 3.46875 -0.625 C 3.082031 -1.050781 2.890625 -1.648438 2.890625 -2.421875 C 2.890625 -2.960938 3.003906 -3.582031 3.234375 -4.28125 L 31.21875 -83.125 C 31.601562 -84.125 32.023438 -84.816406 32.484375 -85.203125 C 32.953125 -85.585938 33.6875 -85.78125 34.6875 -85.78125 L 57.453125 -85.78125 C 58.378906 -85.78125 59.207031 -85.488281 59.9375 -84.90625 C 60.675781 -84.332031 61.238281 -83.582031 61.625 -82.65625 L 89.359375 -3.9375 C 89.515625 -3.3125 89.59375 -2.847656 89.59375 -2.546875 C 89.59375 -1.847656 89.4375 -1.25 89.125 -0.75 C 88.820312 -0.25 88.363281 0 87.75 0 L 65.09375 0 C 63.78125 0 62.929688 -0.65625 62.546875 -1.96875 L 58.03125 -15.265625 C 57.800781 -15.796875 57.585938 -16.15625 57.390625 -16.34375 C 57.203125 -16.539062 56.835938 -16.640625 56.296875 -16.640625 L 31.796875 -16.640625 C 30.867188 -16.640625 30.289062 -16.21875 30.0625 -15.375 L 25.3125 -1.734375 C 24.851562 -0.578125 23.929688 0 22.546875 0 Z M 50.515625 -36.296875 C 51.367188 -36.296875 51.796875 -36.679688 51.796875 -37.453125 C 51.796875 -37.609375 51.71875 -37.992188 51.5625 -38.609375 L 44.625 -58.375 C 44.46875 -58.757812 44.234375 -58.953125 43.921875 -58.953125 C 43.617188 -58.953125 43.390625 -58.757812 43.234375 -58.375 L 36.1875 -38.734375 C 36.03125 -38.421875 35.953125 -38.035156 35.953125 -37.578125 C 35.953125 -36.722656 36.414062 -36.296875 37.34375 -36.296875 Z M 50.515625 -36.296875 "/></g></g></g><g fill="#ffdf2b" fill-opacity="1"><g transform="translate(236.235699, 121.535127)"><g><path d="M 3.234375 -83.125 C 3.234375 -83.894531 3.484375 -84.53125 3.984375 -85.03125 C 4.484375 -85.53125 5.195312 -85.78125 6.125 -85.78125 L 75.265625 -85.78125 C 76.191406 -85.78125 76.90625 -85.53125 77.40625 -85.03125 C 77.90625 -84.53125 78.15625 -83.894531 78.15625 -83.125 L 78.15625 -69.359375 C 78.15625 -67.898438 77.304688 -67.171875 75.609375 -67.171875 L 55.140625 -67.171875 C 54.222656 -67.171875 53.765625 -66.785156 53.765625 -66.015625 L 53.765625 -2.546875 C 53.765625 -1.691406 53.570312 -1.050781 53.1875 -0.625 C 52.800781 -0.207031 52.257812 0 51.5625 0 L 29.59375 0 C 28.207031 0 27.515625 -0.769531 27.515625 -2.3125 L 27.515625 -65.546875 C 27.515625 -66.628906 27.09375 -67.171875 26.25 -67.171875 L 5.890625 -67.171875 C 4.117188 -67.171875 3.234375 -67.898438 3.234375 -69.359375 Z M 3.234375 -83.125 "/></g></g></g><g fill="#ffdf2b" fill-opacity="1"><g transform="translate(317.61812, 121.535127)"><g><path d="M 44.515625 -86.9375 C 50.910156 -86.9375 56.6875 -85.800781 61.84375 -83.53125 C 67.007812 -81.257812 71.25 -78.117188 74.5625 -74.109375 C 77.882812 -70.097656 80.046875 -65.507812 81.046875 -60.34375 C 81.273438 -59.414062 81.390625 -58.6875 81.390625 -58.15625 C 81.390625 -57.457031 81.253906 -56.992188 80.984375 -56.765625 C 80.710938 -56.535156 80.234375 -56.378906 79.546875 -56.296875 L 59.3125 -55.03125 C 58.539062 -55.03125 58.035156 -55.164062 57.796875 -55.4375 C 57.566406 -55.707031 57.335938 -56.304688 57.109375 -57.234375 C 56.421875 -60.929688 55.148438 -63.835938 53.296875 -65.953125 C 51.441406 -68.078125 48.742188 -69.140625 45.203125 -69.140625 C 40.648438 -69.140625 37.140625 -67.132812 34.671875 -63.125 C 32.210938 -59.113281 30.984375 -52.597656 30.984375 -43.578125 C 30.984375 -34.253906 32.117188 -27.625 34.390625 -23.6875 C 36.660156 -19.757812 40.226562 -17.796875 45.09375 -17.796875 C 49.175781 -17.796875 52.660156 -18.835938 55.546875 -20.921875 C 58.441406 -23.003906 60.851562 -26.472656 62.78125 -31.328125 C 63.007812 -32.023438 63.660156 -32.375 64.734375 -32.375 C 65.273438 -32.375 65.703125 -32.332031 66.015625 -32.25 L 80.46875 -29.359375 C 81.625 -28.972656 82.203125 -28.085938 82.203125 -26.703125 C 82.203125 -24.546875 80.867188 -21.210938 78.203125 -16.703125 C 75.546875 -12.191406 71.382812 -8.085938 65.71875 -4.390625 C 60.0625 -0.691406 52.914062 1.15625 44.28125 1.15625 C 36.113281 1.15625 28.945312 -0.785156 22.78125 -4.671875 C 16.613281 -8.566406 11.851562 -13.925781 8.5 -20.75 C 5.144531 -27.570312 3.46875 -35.335938 3.46875 -44.046875 C 3.46875 -52.679688 5.144531 -60.234375 8.5 -66.703125 C 11.851562 -73.179688 16.628906 -78.171875 22.828125 -81.671875 C 29.035156 -85.179688 36.265625 -86.9375 44.515625 -86.9375 Z M 44.515625 -86.9375 "/></g></g></g><g fill="#ffdf2b" fill-opacity="1"><g transform="translate(402.815357, 121.535127)"><g><path d="M 34.109375 -34.34375 C 33.566406 -34.34375 33.117188 -34.164062 32.765625 -33.8125 C 32.421875 -33.46875 32.25 -33.066406 32.25 -32.609375 L 32.25 -3.359375 C 32.25 -2.117188 31.941406 -1.25 31.328125 -0.75 C 30.710938 -0.25 29.75 0 28.4375 0 L 9.140625 0 C 7.984375 0 7.171875 -0.226562 6.703125 -0.6875 C 6.242188 -1.15625 6.015625 -1.890625 6.015625 -2.890625 L 6.015625 -83.125 C 6.015625 -83.96875 6.207031 -84.617188 6.59375 -85.078125 C 6.976562 -85.546875 7.515625 -85.78125 8.203125 -85.78125 L 30.171875 -85.78125 C 30.785156 -85.78125 31.285156 -85.566406 31.671875 -85.140625 C 32.054688 -84.722656 32.25 -84.128906 32.25 -83.359375 L 32.25 -56.53125 C 32.25 -54.988281 32.945312 -54.21875 34.34375 -54.21875 L 53.765625 -54.21875 C 55.148438 -54.21875 55.84375 -54.988281 55.84375 -56.53125 L 55.84375 -83.359375 C 55.84375 -84.128906 56.035156 -84.722656 56.421875 -85.140625 C 56.804688 -85.566406 57.304688 -85.78125 57.921875 -85.78125 L 79.890625 -85.78125 C 80.578125 -85.78125 81.113281 -85.546875 81.5 -85.078125 C 81.882812 -84.617188 82.078125 -83.96875 82.078125 -83.125 L 82.078125 -2.890625 C 82.078125 -1.890625 81.847656 -1.15625 81.390625 -0.6875 C 80.929688 -0.226562 80.125 0 78.96875 0 L 59.65625 0 C 58.34375 0 57.378906 -0.25 56.765625 -0.75 C 56.148438 -1.25 55.84375 -2.117188 55.84375 -3.359375 L 55.84375 -32.609375 C 55.84375 -33.066406 55.664062 -33.46875 55.3125 -33.8125 C 54.96875 -34.164062 54.523438 -34.34375 53.984375 -34.34375 Z M 34.109375 -34.34375 "/></g></g></g></svg>